<?xml version="1.0" encoding="utf-8"?>
<!-- Generator: Adobe Illustrator 21.1.0, SVG Export Plug-In . SVG Version: 6.00 Build 0)  -->
<svg version="1.1" id="Layer_1" xmlns="http://www.w3.org/2000/svg" xmlns:xlink="http://www.w3.org/1999/xlink" x="0px" y="0px"
	 viewBox="0 0 114 928" style="enable-background:new 0 0 114 928;" xml:space="preserve">
<style type="text/css">
	.st0{fill:#3C5563;}
	.st1{fill:#FFFFFF;}
	.st2{fill:#768D99;}
	.st3{fill:#ACBBC2;}
	.st4{fill:#F3A914;}
	.st5{fill:#F79A25;}
	.st6{fill:#99C93C;}
	.st7{fill:#137BC0;}
</style>
<path class="st0" d="M20.9,19.9l-0.3,0.3l-0.7-0.7c1.5-1.8,1.4-4.4-0.2-6.1c-1.8-1.8-4.6-1.8-6.4,0s-1.8,4.6,0,6.4
	c1.7,1.7,4.3,1.7,6.1,0.2l0.7,0.7L19.8,21l3.1,3.1L24,23L20.9,19.9z M14.4,18.6c-1.2-1.2-1.2-3.1,0-4.2s3.1-1.2,4.2,0s1.2,3.1,0,4.2
	C17.5,19.8,15.6,19.8,14.4,18.6z"/>
<path class="st0" d="M18.4,56.6c-0.1-0.1-0.1-0.3-0.2-0.5s-0.1-0.4-0.1-0.6c0-0.3,0.1-0.5,0.2-0.8s0.3-0.5,0.5-0.7s0.5-0.4,0.7-0.6
	c0.2-0.2,0.5-0.5,0.7-0.7c0.2-0.3,0.4-0.6,0.5-0.9c0.1-0.3,0.2-0.7,0.2-1.1c0-0.4-0.1-0.8-0.2-1.2s-0.4-0.6-0.7-0.8s-0.6-0.4-1-0.5
	S18.2,48,17.7,48c-1,0-1.9,0.3-2.8,0.8v1.9c0.7-0.7,1.5-1.1,2.3-1.1c0.2,0,0.5,0,0.7,0.1s0.4,0.2,0.6,0.3s0.3,0.3,0.4,0.5
	s0.1,0.4,0.1,0.6c0,0.3-0.1,0.5-0.2,0.8c-0.1,0.2-0.3,0.4-0.5,0.7c-0.2,0.2-0.4,0.4-0.6,0.6c-0.2,0.2-0.5,0.4-0.6,0.7
	c-0.2,0.2-0.4,0.5-0.5,0.8s-0.2,0.6-0.2,0.9c0,0.2,0,0.4,0.1,0.6c0,0.2,0.1,0.4,0.1,0.5L18.4,56.6L18.4,56.6z M18.4,59.7
	c0.2-0.2,0.3-0.5,0.3-0.8s-0.1-0.6-0.3-0.8c-0.2-0.2-0.5-0.3-0.8-0.3s-0.6,0.1-0.8,0.3c-0.2,0.2-0.3,0.5-0.3,0.8s0.1,0.6,0.3,0.8
	c0.2,0.2,0.5,0.3,0.8,0.3S18.2,59.9,18.4,59.7L18.4,59.7z"/>
<path class="st0" d="M18,128c-2.3,0-4.4,0.8-6,2.1v1.9h12v-1.9C22.4,128.8,20.3,128,18,128z M18,126c1.7,0,3-1.3,3-3s-1.3-3-3-3
	s-3,1.3-3,3S16.3,126,18,126z"/>
<path class="st1" d="M24.9,193.2l-2,2l-2.1-2.1l2-2c-0.2-0.1-0.5-0.1-0.8-0.1c-1.7,0-3,1.3-3,3c0,0.3,0,0.5,0.1,0.8l-4.3,4.3
	c-0.2-0.1-0.5-0.1-0.8-0.1c-1.7,0-3,1.3-3,3c0,0.3,0.1,0.5,0.1,0.8l2-2l2.1,2.1l-2,2c0.2,0.1,0.5,0.1,0.8,0.1c1.7,0,3-1.3,3-3
	c0-0.3,0-0.5-0.1-0.8l4.4-4.3c0.2,0.1,0.5,0.1,0.8,0.1c1.7,0,3-1.3,3-3C25,193.7,25,193.5,24.9,193.2z"/>
<path class="st1" d="M11,372v2h14v-2H11z M11,379h14v-2H11V379z M11,384h14v-2H11V384z"/>
<path class="st1" d="M18.7,409.2c0.2,0.2,0.5,0.3,0.9,0.3s0.8-0.2,1-0.5s0.4-0.7,0.4-1s-0.1-0.6-0.3-0.8c-0.2-0.2-0.5-0.3-0.9-0.3
	s-0.8,0.1-1,0.4s-0.4,0.6-0.4,1C18.4,408.8,18.5,409,18.7,409.2z M15.4,414.2c0.9-0.6,1.5-0.9,1.8-0.9c0.2,0,0.2,0.1,0.2,0.3
	c0,0.4-0.3,1.5-0.9,3.6c-0.3,0.9-0.4,1.5-0.5,1.9s-0.1,0.7-0.1,1s0.1,0.5,0.2,0.7s0.3,0.3,0.6,0.3c0.2,0,0.5,0,0.7-0.1
	s0.8-0.4,1.4-0.8s1.2-0.8,1.7-1.1V419l-0.2-0.4h-0.1c-0.9,0.6-1.4,0.9-1.6,0.9c-0.1,0-0.1,0-0.2-0.1s-0.1-0.1-0.1-0.2
	c0-0.3,0.3-1.5,0.9-3.5c0.3-1.2,0.6-2,0.7-2.4s0.2-0.8,0.2-1s-0.1-0.4-0.2-0.5s-0.3-0.2-0.4-0.2c-0.4,0-0.9,0.2-1.6,0.5
	c-0.7,0.4-1.6,1-2.8,1.8v0.1l0.2,0.3L15.4,414.2z"/>
<path class="st2" d="M22,486c0-1.5-0.8-2.7-2-3.4v6.9C21.2,488.8,22,487.5,22,486z"/>
<polygon class="st2" points="11,483.4 11,488.6 13.6,488.6 18,493 18,479 13.6,483.4 "/>
<path class="st2" d="M20,479.3v1.6c2,0.8,3.5,2.8,3.5,5.1s-1.5,4.3-3.5,5.1v1.6c2.9-0.9,5-3.5,5-6.7S22.9,480.2,20,479.3z"/>
<path class="st2" d="M23.5,522c0,0.4,0,0.8-0.1,1.1l1.2,1.2c0.3-0.7,0.4-1.5,0.4-2.4c0-3.2-2.1-5.8-5-6.7v1.6
	C22,517.7,23.5,519.7,23.5,522z M20,518.6v1.2l2,2C21.9,520.4,21.1,519.2,20,518.6z M24.7,527.3l-12-12l-1.4,1.4l2.5,2.5l-0.2,0.2
	H11v5.2h2.6L18,529v-5.6l2,2l0,0l0,0l1.1,1.1c-0.3,0.2-0.7,0.4-1.1,0.6v1.6c0.8-0.2,1.5-0.6,2.2-1.1l1.1,1.1L24.7,527.3L24.7,527.3
	L24.7,527.3z M18,515l-1.4,1.4l1.4,1.4V515z"/>
<path class="st2" d="M18,565c1.1,0,2-0.9,2-2h-4C16,564.1,16.9,565,18,565z M22,559.6v-3c0-1.9-1.3-3.4-3-3.9V552c0-0.5-0.5-1-1-1
	s-1,0.5-1,1v0.8c-1.7,0.5-3,2-3,3.9v3l-2,2h12L22,559.6z"/>
<path class="st2" d="M22,592.6c0-1.9-1.3-3.4-3-3.9V588c0-0.5-0.5-1-1-1s-1,0.5-1,1v0.8l0,0l5,5V592.6z M18,601c1.1,0,2-0.9,2-2h-4
	C16,600.1,16.9,601,18,601z M25,599.6L25,599.6L12.4,587l-1.4,1.4l3.2,3.2c-0.1,0.3-0.2,0.7-0.2,1.1v3l-2,2h8.2l3.4,3.4L25,599.6
	L25,599.6z"/>
<path class="st2" d="M24,628c-1.1,0-2,0.9-2,2s0.9,2,2,2s2-0.9,2-2S25.1,628,24,628z M12,628c-1.1,0-2,0.9-2,2s0.9,2,2,2s2-0.9,2-2
	S13.1,628,12,628z M18,628c-1.1,0-2,0.9-2,2s0.9,2,2,2s2-0.9,2-2S19.1,628,18,628z"/>
<path class="st2" d="M24.1,668l-6.1-6l-6.1,6c-0.5,0.5-0.5,1.2,0,1.7s1.2,0.5,1.7,0l4.4-4.3l4.4,4.3c0.5,0.5,1.2,0.5,1.7,0
	S24.6,668.4,24.1,668z"/>
<path class="st2" d="M11.9,700l6.1,6l6.1-6c0.5-0.5,0.5-1.2,0-1.7s-1.2-0.5-1.7,0l-4.4,4.3l-4.4-4.3c-0.5-0.5-1.2-0.5-1.7,0
	S11.4,699.6,11.9,700z"/>
<path class="st3" d="M18,729c-5,0-9,4-9,9s4,9,9,9s9-4,9-9S23,729,18,729z M19,743h-2v-6h2V743z M19,735h-2v-2h2V735z"/>
<rect x="17" y="811" class="st3" width="2" height="2"/>
<rect x="13" y="811" class="st3" width="2" height="2"/>
<rect x="13" y="807" class="st3" width="2" height="2"/>
<rect x="21" y="807" class="st3" width="2" height="2"/>
<rect x="21" y="811" class="st3" width="2" height="2"/>
<rect x="17" y="807" class="st3" width="2" height="2"/>
<path class="st3" d="M19,783v-2h2v2H19z M19,777h2v2h-2V777z M19,773h2v2h-2V773z M19,769h2v2h-2V769z M19,765h2v2h-2V765z M15,781
	h2v2h-2V781z M15,777h2v2h-2V777z M15,773h2v2h-2V773z M15,769h2v2h-2V769z M15,765h2v2h-2V765z"/>
<path class="st2" d="M23.8,841.7c-0.3-0.3-0.8-0.3-1.1,0l-6.5,6.8l-2.8-2.9c-0.3-0.3-0.8-0.3-1.1,0s-0.3,0.8,0,1.2l3.4,3.5
	c0.3,0.3,0.8,0.3,1.1,0l7.1-7.4C24.1,842.6,24.1,842.1,23.8,841.7z"/>
<path class="st0" d="M23,84H13c-0.6,0-1,0.4-1,1v10c0,0.6,0.4,1,1,1h10c0.5,0,1-0.4,1-1V85C24,84.4,23.5,84,23,84z M21,93.8h-6v-1.2
	l3.5-4.8h-3.3v-1.6h5.7v1.3l-3.4,4.7H21V93.8L21,93.8z"/>
<polygon class="st1" points="25,227 19.6,227 21.6,229 19,231.6 20.4,233 23,230.4 25,232.4 "/>
<polygon class="st1" points="15.6,235 13,237.6 11,235.6 11,241 16.4,241 14.4,239 17,236.4 "/>
<polygon class="st1" points="25,264.4 23.6,263 21,265.6 19,263.6 19,269 24.4,269 22.4,267 "/>
<polygon class="st1" points="13.6,273 11,275.6 12.4,277 15,274.4 17,276.4 17,271 11.6,271 "/>
<path class="st0" d="M22.4,158.1l-1.1,1.1c0.7,0.8,1.2,1.8,1.2,3c0,2.4-2,4.4-4.5,4.4s-4.5-2-4.5-4.4c0-1.2,0.5-2.2,1.2-3l-1.1-1.1
	c-1,1.1-1.6,2.5-1.6,4c0,3.3,2.7,5.9,6,5.9s6-2.6,6-5.9C24,160.5,23.4,159.1,22.4,158.1z M19,156h-2v6h2V156z"/>
<path class="st1" d="M96.4,56.6c-0.1-0.1-0.1-0.3-0.2-0.5s-0.1-0.4-0.1-0.6c0-0.3,0.1-0.5,0.2-0.8s0.3-0.5,0.5-0.7s0.4-0.4,0.7-0.6
	c0.2-0.2,0.5-0.5,0.7-0.7c0.2-0.3,0.4-0.6,0.5-0.9c0.1-0.3,0.2-0.7,0.2-1.1c0-0.4-0.1-0.8-0.2-1.2s-0.4-0.6-0.7-0.8s-0.6-0.4-1-0.5
	S96.2,48,95.8,48c-1,0-1.9,0.3-2.8,0.8v1.9c0.7-0.7,1.5-1.1,2.3-1.1c0.2,0,0.5,0,0.7,0.1s0.4,0.2,0.6,0.3s0.3,0.3,0.4,0.5
	s0.2,0.4,0.2,0.6c0,0.3-0.1,0.5-0.2,0.8s-0.3,0.4-0.5,0.7c-0.2,0.2-0.4,0.4-0.6,0.6c-0.2,0.2-0.4,0.4-0.6,0.7
	c-0.2,0.2-0.4,0.5-0.5,0.8s-0.2,0.6-0.2,0.9c0,0.2,0,0.4,0.1,0.6c0,0.2,0.1,0.4,0.1,0.5L96.4,56.6L96.4,56.6z M96.4,59.7
	c0.2-0.2,0.3-0.5,0.3-0.8s-0.1-0.6-0.3-0.8c-0.2-0.2-0.5-0.3-0.8-0.3s-0.6,0.1-0.8,0.3c-0.2,0.2-0.3,0.5-0.3,0.8s0.1,0.6,0.3,0.8
	c0.2,0.2,0.5,0.3,0.8,0.3S96.2,59.9,96.4,59.7L96.4,59.7z"/>
<path class="st1" d="M96,128c-2.3,0-4.4,0.8-6,2.1v1.9h12v-1.9C100.4,128.8,98.3,128,96,128z M96,126c1.7,0,3-1.3,3-3s-1.3-3-3-3
	s-3,1.3-3,3S94.3,126,96,126z"/>
<path class="st1" d="M101,84H91c-0.6,0-1,0.4-1,1v10c0,0.6,0.4,1,1,1h10c0.6,0,1-0.4,1-1V85C102,84.4,101.6,84,101,84z M99,93.8h-6
	v-1.2l3.5-4.8h-3.3v-1.6h5.7v1.3l-3.4,4.7H99V93.8L99,93.8z"/>
<path class="st1" d="M100.3,158.1l-1.1,1.1c0.7,0.8,1.2,1.8,1.2,3c0,2.4-2,4.4-4.5,4.4s-4.5-2-4.5-4.4c0-1.2,0.5-2.2,1.2-3l-1.1-1.1
	c-1,1.1-1.7,2.5-1.7,4c0,3.3,2.7,5.9,6,5.9s6-2.6,6-5.9C102,160.5,101.4,159.1,100.3,158.1z M97,156h-2v6h2V156z"/>
<path class="st1" d="M22.8,452.1c-0.8,1.8-2.6,3.1-4.8,3.1c-2.9,0-5.2-2.4-5.2-5.2s2.4-5.2,5.2-5.2c1.5,0,2.8,0.6,3.7,1.6l0,0
	l-2.8,2.8H25V443l-2.1,2.1l0,0c-1.3-1.3-3-2.1-4.9-2.1c-3.9,0-7,3.1-7,7s3.1,7,7,7c3.1,0,5.7-2,6.6-4.9H22.8z"/>
<path class="st3" d="M61.5,837h-15c-0.8,0-1.5,0.7-1.5,1.5v15c0,0.8,0.7,1.5,1.5,1.5h15c0.8,0,1.5-0.7,1.5-1.5v-15
	C63,837.7,62.3,837,61.5,837z M61,853H47v-12h14V853z M51,844h-2v2h2V844z M59,844h-2v2h2V844z M55,844h-2v2h2V844z M55,848h-2v2h2
	V848z M51,848h-2v2h2V848z M59,848h-2v2h2V848z"/>
<path class="st4" d="M58.8,807.2l-2.2,2.2l-2-2l2.2-2.2c-1.2-0.5-2.6-0.2-3.6,0.8s-1.2,2.5-0.7,3.8l-3.5,3.5l1.8,1.8l3.5-3.5
	c1.2,0.5,2.7,0.3,3.8-0.7C59,809.8,59.2,808.4,58.8,807.2z"/>
<path class="st2" d="M55,777v-5.2c0.9-0.4,1.5-1.3,1.5-2.3c0-1.4-1.1-2.5-2.5-2.5s-2.5,1.1-2.5,2.5c0,1,0.6,1.9,1.5,2.3v5.2h-3l4,4
	l4-4H55z"/>
<path class="st2" d="M53,735v5.2c-0.9,0.4-1.5,1.3-1.5,2.3c0,1.4,1.1,2.5,2.5,2.5s2.5-1.1,2.5-2.5c0-1-0.6-1.9-1.5-2.3V735h3l-4-4
	l-4,4H53z"/>
<path class="st2" d="M61.7,695.7c-0.4-0.5-1.1-0.5-1.5,0l-8.5,8.9l-3.8-4c-0.4-0.5-1.1-0.5-1.5,0s-0.4,1.2,0,1.6l4.6,4.9
	c0.2,0.2,0.5,0.3,0.8,0.3s0.6-0.1,0.8-0.3l9.2-9.7C62.1,696.9,62.1,696.2,61.7,695.7z"/>
<path class="st1" d="M98.9,19.9l-0.3,0.3l-0.7-0.7c1.5-1.8,1.4-4.4-0.2-6.1c-1.8-1.8-4.6-1.8-6.4,0s-1.8,4.6,0,6.4
	c1.7,1.7,4.3,1.7,6.1,0.2l0.7,0.7L97.8,21l3.1,3.1L102,23L98.9,19.9z M92.4,18.6c-1.2-1.2-1.2-3.1,0-4.2s3.1-1.2,4.2,0
	s1.2,3.1,0,4.2S93.6,19.8,92.4,18.6z"/>
<path class="st1" d="M18,299l-2.1,4.7l-4.9,0.6l0.7,0.7l0,0l0.2,0.2l0,0l2.7,2.7l0,0l0,0l-0.9,5.1l0.9-0.5l0,0l0.3-0.2l0,0l3.2-1.8
	l3.2,1.9l0,0l0.3,0.2l0,0l0.9,0.5l-0.9-5.1l0,0l0,0l2.7-2.7l0,0l0.2-0.2l0,0l0.7-0.7l-4.9-0.6L18,299L18,299z M13.2,305.1l2.9-0.4
	l0.5-0.1l0.2-0.5l1.2-2.7l1.2,2.7l0.2,0.5l0.5,0.1l2.9,0.4l-2.1,2.1l-0.4,0.4l0.1,0.5l0.5,3l-2.5-1.4l-0.5-0.3l-0.5,0.3l-2.4,1.4
	l0.5-3l0.1-0.5l-0.4-0.4L13.2,305.1L13.2,305.1z"/>
<path class="st4" d="M16.2,338.2c0,0-2.9,0.4-4.2,0.5c0.9,0.9,3.1,3,3.1,3s-0.5,3-0.8,4.3c1.2-0.7,3.6-2.1,3.6-2.1s2.5,1.4,3.6,2.1
	c-0.2-1.3-0.8-4.3-0.8-4.3s2.1-2.1,3.1-3c-1.3-0.2-4.2-0.5-4.2-0.5s-1.2-2.7-1.8-3.9C17.4,335.5,16.2,338.2,16.2,338.2z"/>
<path class="st4" d="M18,333l-2.1,4.7l-4.9,0.6l0.7,0.7l0,0l0.2,0.2l0,0l2.7,2.7l0,0l0,0l-0.9,5.1l0.9-0.5l0,0l0.3-0.2l0,0l3.2-1.8
	l3.2,1.9l0,0l0.3,0.2l0,0l0.9,0.5l-0.9-5.1l0,0l0,0l2.7-2.7l0,0l0.2-0.2l0,0l0.7-0.7l-4.9-0.6L18,333L18,333z M13.2,339.1l2.9-0.4
	l0.5-0.1l0.2-0.5l1.2-2.7l1.2,2.7l0.2,0.5l0.5,0.1l2.9,0.4l-2.1,2.1l-0.4,0.4l0.1,0.5l0.5,3l-2.5-1.4l-0.5-0.3l-0.5,0.3l-2.4,1.4
	l0.5-3l0.1-0.5l-0.4-0.4L13.2,339.1L13.2,339.1z"/>
<path class="st1" d="M53,671h2v-6h-2V671z M53,661v2h2v-2H53z"/>
<g id="Page-1">
	<g id="ipower-banner">
		<g id="Group-26-Copy" transform="translate(97.000000, 0.000000)">
			<g id="Group-11">
				<g id="Group-14">
					<path id="Fill-57" class="st5" d="M-86.8,866.5h11.5c1.2,0,2.1,1,2.1,2.1v5.4h-5.4c-2,0-3.7,1.6-3.7,3.7v4.5h-4.6
						c-1.2,0-2.1-1-2.1-2.1v-11.5C-89,867.5-88,866.5-86.8,866.5"/>
					<path id="Fill-58" class="st6" d="M-68.7,864h6.6c0.7,0,1.2,0.5,1.2,1.2v6.6c0,0.7-0.5,1.2-1.2,1.2h-6.6
						c-0.7,0-1.2-0.5-1.2-1.2v-6.6C-69.9,864.5-69.4,864-68.7,864"/>
					<path id="Combined-Shape_8_" class="st7" d="M-78.5,875.2h13.7c1.4,0,2.5,1.1,2.5,2.5v13.7c0,1.4-1.1,2.5-2.5,2.5h-13.7
						c-1.4,0-2.5-1.1-2.5-2.5v-13.7C-81,876.3-79.9,875.2-78.5,875.2z M-73.2,878.1c0,0.9,0.7,1.6,1.6,1.6h0.1
						c0.9,0,1.6-0.7,1.6-1.6c0-0.9-0.7-1.6-1.6-1.6h-0.1C-72.5,876.5-73.2,877.2-73.2,878.1z M-73.2,892.9h3.2v-11.8h-3.2V892.9z"/>
				</g>
			</g>
			<g id="Group-28" transform="translate(485.296981, 209.591042)">
				<path id="ONE" class="st7" d="M-504.7,674.7c-1.1,0.3-1.5,0.5-2,0.9c-0.4,0.4-0.7,1.1-0.7,2l6.6,0v2h-6.6c0,1,0.2,1.7,0.6,2.1
					c0.4,0.4,1.1,0.7,2.1,0.7h3.9v2h-4.1c-0.9,0-1.6-0.1-2.1-0.2c-0.5-0.2-1-0.4-1.4-0.8c-0.6-0.5-1-1.1-1.3-1.8s-0.4-1.6-0.4-2.7
					c0-2,0.1-3,1-4s1.8-1.5,3.7-2c2.1-0.5,4.7-0.5,4.7-0.5v2C-500.8,674.3-502.8,674.1-504.7,674.7z"/>
				<path id="Combined-Shape_7_" class="st5" d="M-528.6,680.5c0-0.9,0.1-1.6,0.4-2.2c0.6-0.2,2.6-1.3,4.8-1.3
					c0.6,0,0.8,0.3,1.2,0.7c0.6,0.6,0.9,1.6,0.9,2.9s-0.3,2.3-0.9,2.9s-1.5,0.9-2.8,0.9c-1.3,0-2.2-0.3-2.8-0.9
					S-528.6,681.9-528.6,680.5z M-525,678.3c-0.6,0-1.1,0.2-1.4,0.6c-0.3,0.4-0.5,1-0.5,1.8c0,0.8,0.1,1.5,0.4,1.9
					c0.3,0.4,0.8,0.6,1.4,0.6c0.6,0,1.1-0.2,1.4-0.6s0.5-1,0.5-1.8c0-0.8-0.2-1.4-0.5-1.8S-524.3,678.3-525,678.3z"/>
				<path id="n" class="st7" d="M-513.8,674.4c1.1,0,1.3,0.3,1.8,0.8c0.5,0.5,0.6,1.4,0.6,2.3v6.9h-2.1v-6.2c0-0.5-0.1-0.9-0.3-1.2
					c-0.2-0.2-0.5-0.3-1-0.3c-0.4,0-0.7,0.1-1,0.2c-0.3,0.1-0.6,0.3-0.8,0.5s-0.4,0.5-0.6,0.8c-0.1,0.3-0.2,0.6-0.2,0.9v5.3h-2.1
					v-8.1C-519.5,676.2-515.4,674.4-513.8,674.4z"/>
				<path id="Fill-62" class="st7" d="M-532.6,683.2c0,0.6,0.5,1.1,1.1,1.1l0,0c0.6,0,1.1-0.5,1.1-1.1V683c0-0.6-0.5-1.1-1.1-1.1
					l0,0c-0.6,0-1.1,0.5-1.1,1.1V683.2z"/>
			</g>
			<g id="Group-27" transform="translate(327.848101, 130.525803)">
				<path id="Combined-Shape_2_" class="st7" d="M-350.9,751.2l1.8-0.3v-2l-0.5,0.6v-2.6l0.4,0.5v-2.6h-4.6v7l2.5-0.5v-3l1.6,1.2
					L-350.9,751.2z M-349.6,746.8l-1.6-1.9v3.3L-349.6,746.8z"/>
				<path id="Combined-Shape_3_" class="st7" d="M-388.7,763.4v-18.7h6.7v15.9L-388.7,763.4z M-381,757.8v-13.1h2
					c0.8,0,1.6,0.3,2.4,0.9c0.7,0.6,1.2,1.4,1.6,2.4c0.2,0.5,0.3,1,0.4,1.6c0.1,0.6,0.1,1.2,0.1,1.8c0,0.9-0.1,1.7-0.3,2.5
					c-0.2,0.8-0.5,1.5-0.9,2.1c-0.4,0.6-0.9,1-1.4,1.4c-0.5,0.3-1.1,0.5-1.7,0.5H-381z"/>
				<path id="Combined-Shape_4_" class="st5" d="M-368.3,755.5v-10.8h0.4c0.6,0,1.1,0.2,1.7,0.5c0.5,0.4,1,0.8,1.4,1.4
					c0.4,0.6,0.7,1.3,0.9,2.1c0.2,0.8,0.3,1.6,0.3,2.6c0,0.9-0.1,1.8-0.3,2.6c0,0.2-0.2,0.4-0.2,0.4L-368.3,755.5z M-369,744.7v11
					c0,0-2.8,1-2.9,0.9c-0.5-0.5-0.9-1.3-1.2-2.1c-0.4-1-0.5-2.1-0.5-3.3c0-0.9,0.1-1.8,0.3-2.6c0.2-0.8,0.5-1.5,0.9-2.1
					c0.2-0.3,0.4-0.6,0.6-0.8c0.2-0.2,0.5-0.4,0.7-0.6c0.5-0.3,1.1-0.5,1.7-0.5H-369z"/>
				<path id="Combined-Shape_5_" class="st7" d="M-358.7,752.8l-1.3-8.2h3.1l1.3,6.9l-0.1,0.6L-358.7,752.8z M-362.3,753.8l-1.3-9.1
					h3.1l1.1,6.9l-0.2,1.5L-362.3,753.8z M-355.4,750.1l-1-5.4h1.8L-355.4,750.1z"/>
				<path id="Combined-Shape_6_" class="st7" d="M-348.5,750.7v-6h2.4v5.7L-348.5,750.7z M-345.8,750.3v-5.6h0.7c0.3,0,0.4,0,0.5,0
					c0.1,0,0.2,0,0.3,0.1c0.1,0,0.2,0.1,0.2,0.1c0.2,0.1,0.3,0.2,0.4,0.4c0.1,0.1,0.2,0.3,0.2,0.5c0,0.2,0.1,0.4,0.1,0.6
					c0,0.5-0.1,0.9-0.3,1.2c-0.1,0.1-0.1,0.2-0.2,0.2c0,0-0.1,0.1-0.3,0.2c0.1,0.1,0.2,0.1,0.3,0.2c0.1,0.1,0.1,0.1,0.2,0.2
					c0.2,0.3,0.4,0.8,0.4,1.4v0.1L-345.8,750.3z"/>
			</g>
		</g>
	</g>
</g>
<g id="Page-1_1_">
	<g id="ipower-banner_1_">
		<g id="Group-26-Copy_1_" transform="translate(97.000000, 0.000000)">
			<g id="Group-11_1_">
				<g id="Group-14_1_">
					<path id="Fill-57_1_" class="st5" d="M-88.2,905.1h9.6c1,0,1.8,0.8,1.8,1.8v4.5h-4.5c-1.7,0-3,1.4-3,3v3.8h-3.8
						c-1,0-1.8-0.8-1.8-1.8v-9.6C-89.9,905.9-89.1,905.1-88.2,905.1"/>
					<path id="Fill-58_1_" class="st6" d="M-73,903h5.5c0.6,0,1,0.5,1,1v5.5c0,0.6-0.5,1-1,1H-73c-0.6,0-1-0.5-1-1V904
						C-74,903.5-73.6,903-73,903"/>
					<path id="Combined-Shape_15_" class="st7" d="M-81.2,912.3h11.4c1.2,0,2.1,0.9,2.1,2.1v11.4c0,1.2-0.9,2.1-2.1,2.1h-11.4
						c-1.2,0-2.1-0.9-2.1-2.1v-11.4C-83.3,913.3-82.3,912.3-81.2,912.3z M-76.8,914.7c0,0.7,0.6,1.3,1.3,1.3h0.1
						c0.7,0,1.3-0.6,1.3-1.3c0-0.7-0.6-1.3-1.3-1.3h-0.1C-76.2,913.4-76.8,914-76.8,914.7z M-76.8,927h2.7v-9.8h-2.7V927z"/>
				</g>
			</g>
			<g id="Group-28_1_" transform="translate(485.296981, 209.591042)">
				<path id="ONE_1_" class="st7" d="M-517.3,710.3c-0.9,0.3-1.3,0.4-1.6,0.8c-0.4,0.4-0.6,0.9-0.6,1.7l5.5,0v1.7h-5.5
					c0,0.8,0.2,1.4,0.5,1.8c0.3,0.4,0.9,0.5,1.7,0.5h3.3v1.7h-3.4c-0.7,0-1.3-0.1-1.8-0.2c-0.4-0.1-0.8-0.3-1.2-0.6
					c-0.5-0.4-0.9-0.9-1.1-1.5c-0.2-0.6-0.4-1.4-0.4-2.2c0-1.7,0.1-2.5,0.8-3.3c0.7-0.8,1.5-1.2,3.1-1.6c1.7-0.4,3.9-0.5,3.9-0.5
					v1.6C-514,710-515.7,709.9-517.3,710.3z"/>
				<path id="Combined-Shape_14_" class="st5" d="M-537.2,715.2c0-0.7,0.1-1.3,0.4-1.8c0.5-0.2,2.2-1.1,4-1.1c0.5,0,0.7,0.3,1,0.6
					c0.5,0.5,0.7,1.3,0.7,2.4s-0.2,1.9-0.7,2.4c-0.5,0.5-1.3,0.8-2.3,0.8c-1,0-1.8-0.3-2.3-0.8C-537,717.1-537.2,716.3-537.2,715.2z
					 M-534.2,713.3c-0.5,0-0.9,0.2-1.2,0.5c-0.3,0.3-0.4,0.8-0.4,1.5c0,0.7,0.1,1.2,0.4,1.6c0.2,0.3,0.6,0.5,1.2,0.5
					c0.5,0,0.9-0.2,1.2-0.5c0.3-0.3,0.4-0.8,0.4-1.5c0-0.7-0.1-1.2-0.4-1.5C-533.2,713.5-533.6,713.3-534.2,713.3z"/>
				<path id="n_1_" class="st7" d="M-524.8,710.1c0.9,0,1.1,0.3,1.5,0.6c0.5,0.4,0.5,1.1,0.5,1.9v5.7h-1.7v-5.2c0-0.5-0.1-0.8-0.3-1
					s-0.5-0.3-0.8-0.3c-0.3,0-0.6,0.1-0.9,0.2s-0.5,0.3-0.7,0.4c-0.2,0.2-0.4,0.4-0.5,0.6c-0.1,0.2-0.2,0.5-0.2,0.8v4.4h-1.7v-6.8
					C-529.6,711.5-526.2,710.1-524.8,710.1z"/>
				<path id="Fill-62_1_" class="st7" d="M-540.5,717.4c0,0.5,0.4,0.9,0.9,0.9l0,0c0.5,0,0.9-0.4,0.9-0.9v-0.1
					c0-0.5-0.4-0.9-0.9-0.9l0,0c-0.5,0-0.9,0.4-0.9,0.9V717.4z"/>
			</g>
			<g id="Group-27_1_" transform="translate(327.848101, 130.525803)">
				<path id="Combined-Shape_13_" class="st7" d="M-362.9,787.2l1.5-0.3v-1.6l-0.4,0.5v-2.2l0.4,0.4v-2.2h-3.9v5.9l2.1-0.4v-2.5
					l1.4,1L-362.9,787.2z M-361.8,783.6l-1.4-1.6v2.8L-361.8,783.6z"/>
				<path id="Combined-Shape_12_" class="st7" d="M-394.3,797.4v-15.6h5.6v13.3L-394.3,797.4z M-387.9,792.7v-10.9h1.7
					c0.7,0,1.4,0.2,2,0.7c0.6,0.5,1,1.1,1.4,2c0.2,0.4,0.3,0.9,0.4,1.3c0.1,0.5,0.1,1,0.1,1.5c0,0.7-0.1,1.4-0.3,2.1
					c-0.2,0.7-0.4,1.2-0.8,1.7c-0.4,0.5-0.7,0.9-1.2,1.1c-0.4,0.3-0.9,0.4-1.4,0.4H-387.9z"/>
				<path id="Combined-Shape_11_" class="st5" d="M-377.3,790.8v-9h0.3c0.5,0,0.9,0.1,1.4,0.4c0.4,0.3,0.8,0.7,1.1,1.2
					c0.3,0.5,0.6,1,0.7,1.7c0.2,0.6,0.3,1.4,0.3,2.1c0,0.8-0.1,1.5-0.3,2.1c0,0.2-0.1,0.4-0.1,0.4L-377.3,790.8z M-377.9,781.8v9.2
					c0,0-2.3,0.8-2.4,0.7c-0.4-0.5-0.7-1-1-1.8c-0.3-0.9-0.4-1.8-0.4-2.7c0-0.8,0.1-1.5,0.3-2.2c0.2-0.7,0.4-1.2,0.7-1.7
					c0.2-0.2,0.3-0.5,0.5-0.7c0.2-0.2,0.4-0.3,0.6-0.5c0.4-0.3,0.9-0.4,1.4-0.4H-377.9z"/>
				<path id="Combined-Shape_10_" class="st7" d="M-369.4,788.6l-1.1-6.8h2.6l1.1,5.7l-0.1,0.5L-369.4,788.6z M-372.4,789.4
					l-1.1-7.6h2.6l0.9,5.7l-0.2,1.3L-372.4,789.4z M-366.6,786.3l-0.8-4.5h1.5L-366.6,786.3z"/>
				<path id="Combined-Shape_9_" class="st7" d="M-360.9,786.8v-5h2v4.7L-360.9,786.8z M-358.6,786.5v-4.7h0.6c0.2,0,0.4,0,0.4,0
					c0.1,0,0.2,0,0.3,0c0.1,0,0.1,0.1,0.2,0.1c0.1,0.1,0.2,0.2,0.3,0.3c0.1,0.1,0.1,0.3,0.2,0.4c0,0.2,0.1,0.3,0.1,0.5
					c0,0.4-0.1,0.7-0.3,1c-0.1,0.1-0.1,0.1-0.2,0.2c0,0-0.1,0.1-0.2,0.2c0.1,0,0.2,0.1,0.2,0.1c0.1,0.1,0.1,0.1,0.1,0.2
					c0.2,0.3,0.3,0.7,0.3,1.2v0.1L-358.6,786.5z"/>
			</g>
		</g>
	</g>
</g>
</svg>
